<?xml version="1.0" standalone="no"?>
<!DOCTYPE svg PUBLIC "-//W3C//DTD SVG 20010904//EN"
 "http://www.w3.org/TR/2001/REC-SVG-20010904/DTD/svg10.dtd">
<svg version="1.0" xmlns="http://www.w3.org/2000/svg"
 width="1280.000000pt" height="1280.000000pt" viewBox="0 0 1280.000000 1280.000000"
 preserveAspectRatio="xMidYMid meet">
<metadata>
Created by potrace 1.15, written by Peter Selinger 2001-2017
</metadata>
<g transform="translate(0.000000,1280.000000) scale(0.100000,-0.100000)"
fill="#81A1C1" stroke="none">
<path d="M1263 12585 c-57 -24 -74 -88 -53 -195 9 -49 -5 -86 -38 -96 -56 -18
-59 -21 -27 -36 17 -7 43 -22 58 -32 19 -13 49 -20 92 -21 36 -2 63 1 60 5 -2
4 8 12 23 19 25 11 26 10 8 -4 -29 -22 -9 -18 24 5 30 22 70 94 69 126 0 10
-7 -2 -15 -28 -8 -26 -20 -50 -26 -54 -8 -5 -9 -2 -3 12 7 17 31 109 41 161 6
34 53 83 79 83 32 0 87 -25 109 -49 l19 -21 -49 0 c-61 0 -110 -28 -130 -75
-19 -48 -18 -94 6 -133 76 -124 260 -75 260 69 0 48 -26 101 -58 118 -11 6
-22 23 -25 39 -8 41 -52 89 -93 102 -95 32 -182 -41 -199 -165 -10 -77 -24
-113 -52 -135 -36 -28 -92 -41 -128 -31 -32 10 -32 10 33 15 18 1 52 44 52 65
-1 9 -7 2 -14 -15 -8 -18 -18 -34 -24 -38 -5 -3 -1 12 10 33 17 34 18 47 9 97
-14 73 -14 127 -1 119 6 -3 7 1 4 10 -4 9 -3 15 2 14 5 -2 22 4 37 11 27 13
27 15 11 27 -22 16 -31 16 -71 -2z m25 -21 c-35 -18 -43 -50 -33 -122 14 -98
11 -123 -19 -149 -15 -13 -39 -23 -54 -22 -26 1 -26 1 5 10 18 5 40 21 50 35
14 22 15 34 5 88 -7 35 -12 75 -12 89 0 30 45 87 68 87 11 -1 8 -6 -10 -16z
m340 -24 c44 -27 41 -35 -5 -10 -47 25 -70 25 -110 0 -41 -24 -50 -43 -67
-134 -8 -41 -22 -88 -31 -105 -21 -42 -82 -71 -142 -70 l-48 1 53 8 c95 14
125 47 147 164 17 91 24 105 66 140 38 32 90 34 137 6z m71 -136 c61 -51 48
-150 -25 -180 -45 -19 -84 -11 -118 23 -95 95 40 244 143 157z m-274 -153 c-3
-6 -11 -11 -17 -11 -6 0 -6 6 2 15 14 17 26 13 15 -4z"/>
<path d="M1569 12381 c-44 -45 -35 -107 21 -136 60 -31 130 11 130 77 0 41
-48 88 -90 88 -22 0 -41 -9 -61 -29z m108 -13 c13 -12 23 -32 23 -45 0 -30
-42 -73 -70 -73 -26 0 -70 43 -70 68 0 11 9 31 21 46 25 32 64 34 96 4z"/>
<path d="M1598 12369 c-10 -5 -18 -15 -18 -21 0 -6 9 -3 20 7 27 24 68 13 76
-22 6 -21 2 -31 -22 -51 -26 -21 -27 -23 -4 -11 45 22 53 56 20 89 -22 22 -46
25 -72 9z"/>
<path d="M1570 12325 c0 -16 30 -55 42 -55 7 0 5 6 -4 13 -8 6 -20 21 -26 32
-6 11 -12 15 -12 10z"/>
<path d="M11230 12518 c-19 -13 -44 -41 -55 -63 -11 -21 -33 -50 -48 -63 -106
-92 -52 -252 84 -252 82 0 139 57 139 140 0 83 -56 140 -140 140 l-45 0 25 20
c14 11 40 27 57 35 32 16 33 15 67 -19 33 -32 38 -45 50 -131 2 -16 3 -5 2 25
-2 30 -7 64 -11 75 -6 15 -5 17 4 9 7 -6 17 -45 22 -85 12 -100 25 -134 60
-164 17 -14 27 -25 22 -25 -18 0 -65 58 -78 96 -8 23 -14 31 -15 19 0 -25 35
-84 63 -107 13 -10 30 -15 41 -12 10 4 16 2 13 -2 -3 -5 21 -10 53 -12 48 -3
67 2 121 29 l63 32 -32 11 c-59 20 -68 38 -54 104 29 138 -1 212 -85 212 -48
0 -57 -15 -18 -29 21 -7 33 -17 29 -23 -4 -6 -2 -8 3 -5 19 12 23 -37 8 -93
-22 -83 -19 -123 11 -159 21 -26 23 -32 10 -37 -22 -9 -80 13 -105 40 -16 17
-26 47 -36 115 -20 136 -59 188 -146 198 -35 4 -51 0 -79 -19z m127 -25 c30
-20 63 -91 63 -137 0 -97 42 -167 108 -182 41 -9 55 -14 51 -19 -2 -2 -25 1
-50 6 -31 7 -57 21 -78 43 -31 32 -36 49 -58 195 -3 21 -18 48 -38 68 -40 40
-83 43 -135 12 l-35 -21 19 21 c36 40 103 46 153 14z m217 16 c13 -7 30 -25
37 -40 11 -28 10 -43 -7 -151 -9 -57 2 -87 39 -103 28 -12 29 -14 9 -15 -13 0
-34 12 -49 26 -27 27 -27 29 -7 172 8 58 -1 89 -34 106 -32 18 -24 21 12 5z
m-238 -43 c10 -8 17 -17 14 -19 -3 -3 -16 3 -29 14 -27 22 -15 26 15 5z m-81
-90 c64 -27 85 -111 39 -165 -51 -61 -150 -48 -180 25 -19 45 -11 84 24 116
43 41 65 45 117 24z"/>
<path d="M11173 12360 c-31 -13 -56 -65 -48 -101 8 -37 49 -69 87 -69 41 0 88
48 88 90 0 22 -9 41 -29 61 -30 29 -58 35 -98 19z m81 -31 c16 -13 26 -30 26
-47 0 -33 -36 -72 -67 -72 -30 0 -73 42 -73 70 0 26 43 70 68 70 11 0 31 -9
46 -21z"/>
<path d="M11182 12324 c-12 -8 -22 -20 -22 -26 0 -7 6 -5 13 4 6 8 21 20 32
26 11 6 15 12 10 12 -6 0 -21 -7 -33 -16z"/>
<path d="M11245 12310 c24 -27 13 -68 -22 -76 -20 -5 -31 -2 -45 16 -10 12
-18 18 -18 12 0 -17 30 -42 51 -42 23 0 59 34 59 56 0 22 -19 54 -32 54 -6 0
-3 -9 7 -20z"/>
<path d="M1527 12509 c-23 -14 -47 -69 -46 -106 1 -32 5 -24 13 28 4 20 18 49
33 63 28 28 28 31 0 15z"/>
<path d="M1282 12480 c0 -19 2 -27 5 -17 2 9 2 25 0 35 -3 9 -5 1 -5 -18z"/>
<path d="M1292 12420 c0 -14 2 -19 5 -12 2 6 2 18 0 25 -3 6 -5 1 -5 -13z"/>
<path d="M11556 12389 c-3 -18 -4 -34 -2 -36 2 -3 7 10 11 27 4 17 5 34 2 36
-2 3 -7 -10 -11 -27z"/>
<path d="M1805 12380 c8 -16 15 -38 15 -50 l0 -20 4610 0 c4382 0 4611 1 4616
18 3 9 12 32 20 50 l14 32 -4645 0 -4646 0 16 -30z"/>
<path d="M1302 12370 c0 -14 2 -19 5 -12 2 6 2 18 0 25 -3 6 -5 1 -5 -13z"/>
<path d="M11541 12300 c-1 -47 28 -110 51 -110 6 0 1 12 -13 26 -16 17 -26 42
-30 77 l-6 52 -2 -45z"/>
<path d="M875 12288 c-92 -34 -166 -120 -186 -215 -38 -187 113 -365 300 -351
31 2 76 13 100 25 36 18 41 19 35 5 -26 -61 -14 -130 30 -177 28 -30 40 -35
78 -35 102 0 178 75 178 176 0 45 -4 56 -32 83 -35 34 -79 46 -139 38 -21 -3
-39 -4 -39 -2 0 2 10 20 22 40 29 51 36 165 14 232 -20 62 -73 124 -133 160
-37 21 -61 27 -122 30 -42 1 -89 -2 -106 -9z m201 -46 c46 -24 94 -73 120
-122 26 -49 26 -171 0 -220 -49 -93 -128 -144 -226 -144 -80 0 -131 24 -187
88 -118 134 -64 350 103 412 51 19 139 12 190 -14z m264 -448 c41 -28 50 -45
48 -98 -1 -38 -2 -42 -5 -16 -6 65 -13 80 -43 95 -111 57 -224 -57 -160 -162
18 -31 31 -37 90 -46 16 -3 10 -5 -15 -6 -49 -1 -82 20 -101 65 -19 45 -18 73
4 113 34 63 128 91 182 55z m-2 -40 c12 -8 20 -19 17 -24 -3 -5 -1 -11 5 -15
12 -7 13 -94 1 -113 -5 -9 -28 -12 -74 -11 -73 2 -79 5 -96 36 -34 65 13 143
86 143 21 0 49 -7 61 -16z"/>
<path d="M891 12237 c-50 -19 -111 -75 -132 -121 -44 -97 -10 -236 73 -296
147 -106 346 -17 365 163 10 99 -43 198 -129 243 -41 21 -134 27 -177 11z
m186 -43 c34 -21 55 -44 75 -83 37 -71 37 -131 0 -202 -98 -189 -375 -130
-390 82 -13 183 163 297 315 203z"/>
<path d="M883 12196 c-72 -34 -107 -87 -109 -170 -1 -33 0 -45 2 -26 9 80 16
102 46 136 36 41 74 62 131 74 36 7 37 8 12 9 -16 0 -53 -10 -82 -23z"/>
<path d="M1008 12203 c7 -3 16 -2 19 1 4 3 -2 6 -13 5 -11 0 -14 -3 -6 -6z"/>
<path d="M1077 12171 c66 -48 96 -136 73 -219 -15 -57 -76 -118 -127 -128 -21
-4 -32 -9 -26 -11 26 -9 83 19 117 57 77 86 73 203 -11 288 -23 23 -48 42 -54
42 -7 0 6 -13 28 -29z"/>
<path d="M942 12149 c-96 -20 -141 -146 -81 -223 76 -97 227 -60 254 61 20 95
-74 183 -173 162z m104 -63 c27 -27 34 -42 34 -74 0 -49 -28 -86 -76 -102
-119 -40 -190 137 -79 198 40 22 85 14 121 -22z"/>
<path d="M915 12075 c-39 -38 -37 -88 6 -127 37 -35 69 -35 108 -2 63 53 28
154 -54 154 -25 0 -44 -8 -60 -25z m105 -15 c29 -29 26 -74 -6 -99 -34 -27
-47 -26 -80 2 -34 29 -36 73 -4 99 29 24 65 23 90 -2z"/>
<path d="M937 12052 c-29 -31 -17 -93 17 -92 6 0 3 5 -6 11 -21 12 -24 59 -6
77 7 7 21 12 33 12 43 0 60 -47 28 -82 -18 -20 -4 -25 15 -6 18 18 14 63 -6
81 -24 22 -55 21 -75 -1z"/>
<path d="M780 11947 c0 -16 29 -63 57 -89 30 -28 73 -49 101 -47 9 0 1 5 -18
11 -48 14 -96 52 -120 96 -10 20 -19 33 -20 29z"/>
<path d="M1216 11729 c-17 -20 -26 -41 -25 -62 1 -30 2 -30 9 7 12 65 73 95
133 65 21 -10 21 -10 3 5 -11 9 -37 16 -57 16 -29 0 -43 -7 -63 -31z"/>
<path d="M1200 11626 c0 -2 8 -10 18 -17 15 -13 16 -12 3 4 -13 16 -21 21 -21
13z"/>
<path d="M1788 12220 l-17 -30 4644 0 c2555 0 4645 2 4645 4 0 3 -4 16 -10 30
l-10 26 -4617 0 -4618 0 -17 -30z"/>
<path d="M11754 12200 c-68 -27 -138 -99 -165 -169 -26 -69 -22 -168 9 -231
17 -36 18 -41 4 -35 -109 45 -219 -22 -208 -125 5 -46 24 -100 35 -100 3 0 6
23 7 50 1 38 7 57 24 75 13 14 19 25 14 25 -26 1 26 20 54 20 76 0 122 -104
71 -161 l-21 -24 16 25 c40 62 -5 151 -76 149 l-33 -1 39 -8 c22 -4 48 -18 58
-30 22 -27 23 -78 3 -106 -8 -12 -11 -25 -7 -29 4 -4 -27 -5 -68 -1 l-75 6 25
-19 c72 -56 162 -48 207 20 22 33 25 47 21 99 -2 33 -4 60 -4 60 1 0 23 -11
50 -25 38 -19 65 -25 116 -25 170 0 299 139 287 311 -10 150 -118 257 -267
266 -48 2 -78 -2 -116 -17z m202 -35 c128 -53 187 -223 121 -351 -106 -207
-398 -179 -463 43 -21 71 -9 143 34 213 29 47 111 105 161 113 37 7 110 -3
147 -18z m-376 -431 c135 -54 83 -276 -55 -235 -29 9 -29 9 12 10 23 1 49 4
58 7 41 16 60 119 29 162 -55 78 -185 62 -199 -25 -10 -56 -13 -62 -14 -23 -1
49 18 82 59 102 43 22 59 22 110 2z m-110 -48 c0 -2 -7 -9 -15 -16 -13 -11
-14 -10 -9 4 5 14 24 23 24 12z"/>
<path d="M11804 12160 c-122 -29 -204 -165 -174 -289 17 -71 58 -123 121 -155
86 -43 176 -31 249 32 59 50 84 103 84 182 0 79 -25 132 -84 183 -57 48 -124
65 -196 47z m113 -25 c38 -11 62 -27 91 -61 76 -86 78 -198 4 -284 -69 -81
-158 -100 -251 -54 -173 86 -151 333 35 399 50 18 60 18 121 0z"/>
<path d="M11808 12123 c6 -2 18 -2 25 0 6 3 1 5 -13 5 -14 0 -19 -2 -12 -5z"/>
<path d="M11914 12115 c22 -8 55 -29 73 -48 19 -18 40 -51 48 -73 8 -21 14
-31 15 -21 0 21 -25 74 -49 101 -20 23 -84 56 -108 56 -10 -1 0 -7 21 -15z"/>
<path d="M11729 12083 c-42 -38 -70 -87 -68 -120 0 -10 5 -2 11 17 13 45 52
96 92 121 17 10 25 19 19 19 -7 0 -32 -17 -54 -37z"/>
<path d="M11773 12051 c-87 -55 -83 -199 6 -246 145 -74 282 108 168 223 -30
30 -44 36 -89 39 -41 3 -60 -1 -85 -16z m133 -30 c89 -54 47 -201 -57 -201
-14 0 -41 10 -60 23 -65 43 -62 137 5 178 39 24 73 24 112 0z"/>
<path d="M11789 11991 c-20 -20 -29 -39 -29 -61 0 -22 9 -41 29 -61 37 -36 79
-38 118 -5 22 19 28 32 28 66 0 82 -88 119 -146 61z m106 -16 c14 -13 25 -34
25 -45 0 -26 -43 -70 -68 -70 -33 0 -72 38 -72 70 0 32 39 70 72 70 10 0 30
-11 43 -25z"/>
<path d="M11810 11970 c-11 -11 -20 -29 -20 -40 0 -25 34 -60 59 -60 18 0 61
43 61 60 0 4 -9 18 -21 31 l-20 24 17 -27 c15 -26 15 -30 0 -53 -9 -14 -25
-25 -35 -25 -21 0 -51 30 -51 52 0 16 25 42 50 51 12 4 11 6 -2 6 -10 1 -27
-8 -38 -19z"/>
<path d="M11651 11924 c0 -11 3 -14 6 -6 3 7 2 16 -1 19 -3 4 -6 -2 -5 -13z"/>
<path d="M12042 11890 c0 -14 2 -19 5 -12 2 6 2 18 0 25 -3 6 -5 1 -5 -13z"/>
<path d="M11665 11871 c9 -58 88 -141 135 -141 8 0 -4 10 -28 21 -48 24 -85
67 -101 119 l-11 35 5 -34z"/>
<path d="M12030 11852 c0 -21 -65 -85 -105 -103 -22 -10 -34 -19 -27 -19 30 0
94 43 118 80 15 22 24 43 20 47 -3 3 -6 1 -6 -5z"/>
<path d="M11833 11723 c9 -2 25 -2 35 0 9 3 1 5 -18 5 -19 0 -27 -2 -17 -5z"/>
<path d="M1715 12140 c-4 -7 1560 -10 4685 -10 3125 0 4689 3 4685 10 -4 7
-1577 10 -4685 10 -3108 0 -4681 -3 -4685 -10z"/>
<path d="M1504 12106 c-35 -16 -70 -46 -115 -97 -35 -40 -78 -88 -95 -106 -31
-32 -31 -33 -9 -33 30 0 95 28 95 41 0 5 4 8 8 5 5 -3 35 16 67 41 33 26 77
57 99 70 23 12 37 23 33 23 -14 0 -71 -32 -112 -63 l-40 -31 30 32 c37 41 115
78 178 86 26 3 46 2 44 -2 -3 -4 19 -7 49 -8 46 0 52 1 41 14 -44 54 -186 69
-273 28z m223 -14 c7 -4 -18 -6 -56 -4 -91 5 -153 -22 -251 -112 -39 -36 -82
-71 -93 -78 -22 -11 139 145 177 172 49 35 177 47 223 22z m-287 -136 c0 -2
-12 -12 -27 -21 l-28 -18 19 21 c17 20 36 29 36 18z"/>
<path d="M11208 12063 c7 -3 16 -2 19 1 4 3 -2 6 -13 5 -11 0 -14 -3 -6 -6z"/>
<path d="M11069 12034 c-27 -13 -49 -27 -49 -31 0 -4 37 -9 83 -9 101 -2 145
-20 242 -98 81 -65 146 -98 183 -94 25 3 24 4 -16 32 -23 16 -40 32 -37 36 2
4 -25 39 -60 77 -60 66 -131 114 -166 112 -8 0 0 -5 16 -11 54 -19 165 -108
165 -132 0 -6 -24 13 -52 41 -68 65 -104 83 -190 92 -61 6 -76 5 -119 -15z
m215 -29 c34 -16 223 -185 208 -185 -5 0 -40 27 -78 60 -137 120 -195 146
-297 137 -69 -6 -69 1 0 12 55 8 119 -1 167 -24z m171 -115 c10 -11 16 -20 13
-20 -3 0 -13 9 -23 20 -10 11 -16 20 -13 20 3 0 13 -9 23 -20z"/>
<path d="M677 11794 c-34 -53 -47 -54 -133 -13 -49 24 -74 30 -108 28 -27 -3
-42 0 -39 6 2 6 -7 -3 -21 -18 -17 -19 -26 -40 -26 -62 l0 -33 29 29 c16 16
34 29 39 29 5 0 38 -16 74 -35 92 -49 133 -53 181 -21 20 14 37 23 37 20 0
-13 -30 -61 -49 -78 -11 -10 -18 -23 -15 -27 12 -21 -51 -31 -131 -22 -74 9
-109 6 -160 -12 -20 -7 -20 -6 -1 9 11 9 15 16 9 16 -6 0 -25 -13 -42 -29 -22
-20 -29 -34 -24 -47 4 -10 2 -15 -3 -11 -6 3 -9 -15 -7 -49 2 -57 22 -94 59
-114 11 -6 26 -27 33 -45 25 -70 105 -108 175 -85 42 14 96 72 95 103 -1 20
-2 20 -6 2 -9 -35 -45 -77 -79 -91 -44 -18 -68 -18 -111 3 -92 43 -98 180 -10
233 18 11 27 20 21 20 -17 0 -62 -38 -76 -63 -6 -12 -15 -35 -18 -52 l-7 -30
-13 30 c-22 53 -17 95 15 122 27 24 31 24 131 18 93 -7 107 -5 146 14 51 25
73 54 90 115 10 36 10 56 0 91 -7 25 -12 54 -12 65 0 34 -14 29 -43 -16z m33
2 c0 -23 -48 -73 -76 -80 -19 -5 -47 3 -101 28 -87 42 -117 44 -152 14 l-25
-23 16 25 c28 46 65 47 158 5 55 -25 89 -35 105 -31 28 7 65 43 65 63 0 7 2
13 5 13 3 0 5 -6 5 -14z m-11 -166 c-15 -27 -37 -47 -68 -62 -41 -20 -50 -21
-122 -10 -88 13 -134 4 -166 -30 -28 -31 -35 -57 -24 -96 6 -19 6 -30 1 -27
-19 12 -23 77 -7 111 23 48 69 68 142 64 160 -9 171 -8 210 30 20 19 39 46 42
60 4 14 8 19 10 13 3 -7 -6 -31 -18 -53z m-19 16 c0 -2 -8 -10 -17 -17 -16
-13 -17 -12 -4 4 13 16 21 21 21 13z m-340 -69 c0 -2 -10 -12 -21 -23 -22 -19
-22 -19 -8 4 12 19 29 30 29 19z"/>
<path d="M468 11823 c7 -3 16 -2 19 1 4 3 -2 6 -13 5 -11 0 -14 -3 -6 -6z"/>
<path d="M550 11790 c30 -16 66 -29 80 -29 23 1 22 2 -5 8 -16 4 -49 17 -72
29 -23 12 -46 22 -50 22 -4 -1 17 -14 47 -30z"/>
<path d="M12095 11725 c-4 -16 -14 -52 -22 -78 -12 -39 -13 -56 -3 -98 25
-103 102 -147 236 -134 105 10 144 -14 144 -85 0 -32 -19 -80 -31 -80 -4 0
-13 -16 -19 -35 -6 -19 -25 -46 -41 -60 -17 -14 -26 -25 -21 -25 13 0 72 68
72 83 0 7 13 19 29 29 43 24 59 56 64 121 4 52 1 62 -21 89 -36 43 -80 58
-159 56 l-68 -1 80 -7 c44 -3 91 -12 103 -19 36 -20 18 -25 -19 -5 -27 13 -50
16 -119 11 -88 -5 -131 1 -131 18 0 6 -13 24 -29 40 -16 17 -31 44 -34 60 -4
17 -3 24 0 17 9 -19 60 -42 94 -42 18 0 62 14 100 30 83 37 94 37 127 4 14
-14 27 -23 30 -20 12 12 -9 77 -27 84 -10 4 -19 11 -19 17 0 5 -5 11 -13 13
-9 2 -9 1 1 -7 11 -7 4 -8 -25 -4 -29 4 -56 -2 -102 -21 -62 -26 -119 -35
-107 -16 4 6 -1 7 -11 3 -11 -4 -15 -3 -10 5 3 6 1 14 -5 18 -6 3 -17 20 -24
38 l-13 31 -7 -30z m54 -84 c31 -17 64 -13 123 14 29 14 69 25 88 25 36 0 80
-23 80 -41 0 -6 -12 -1 -26 10 -35 27 -42 27 -126 -9 -74 -32 -107 -36 -139
-20 -20 11 -49 60 -49 82 1 7 7 -1 15 -19 7 -17 22 -36 34 -42z m-36 -107 c30
-58 59 -69 177 -66 90 2 110 -1 137 -17 61 -38 78 -115 37 -167 -15 -18 -15
-18 -5 3 6 12 11 38 11 58 0 83 -40 106 -178 103 -83 -2 -103 1 -132 18 -40
23 -80 87 -79 124 l1 25 7 -25 c5 -14 15 -39 24 -56z m32 -4 c10 -11 16 -20
13 -20 -3 0 -13 9 -23 20 -10 11 -16 20 -13 20 3 0 13 -9 23 -20z m355 -123
c0 -12 0 -11 -24 28 l-17 30 20 -24 c12 -13 21 -28 21 -34z"/>
<path d="M12333 11713 c9 -2 25 -2 35 0 9 3 1 5 -18 5 -19 0 -27 -2 -17 -5z"/>
<path d="M12225 11679 c-22 -10 -33 -18 -25 -18 8 0 31 8 50 19 45 25 27 24
-25 -1z"/>
<path d="M1050 11652 c-19 -14 -38 -31 -42 -37 -4 -5 -8 -6 -8 -2 0 4 -9 3
-20 -3 -11 -6 -19 -16 -17 -22 1 -6 -4 -13 -12 -16 -9 -3 -11 0 -6 8 10 16 -3
9 -68 -38 -27 -19 -60 -56 -76 -84 -26 -44 -28 -56 -25 -133 1 -49 9 -95 17
-112 l15 -28 7 40 c14 85 18 101 37 140 11 22 62 83 114 135 79 80 135 162
122 176 -2 1 -19 -9 -38 -24z m-26 -60 c-22 -20 -68 -61 -102 -90 -70 -60 -96
-104 -117 -195 l-15 -62 4 62 c5 86 44 154 121 212 33 25 78 63 100 83 22 20
42 34 45 31 3 -2 -13 -21 -36 -41z m-29 8 c-3 -5 -12 -10 -18 -10 -7 0 -6 4 3
10 19 12 23 12 15 0z m-55 -34 c0 -2 -18 -15 -39 -29 -47 -31 -88 -83 -107
-134 -7 -21 -13 -30 -14 -20 0 10 9 35 20 56 25 50 140 154 140 127z"/>
<path d="M438 11623 c7 -3 16 -2 19 1 4 3 -2 6 -13 5 -11 0 -14 -3 -6 -6z"/>
<path d="M388 11613 c7 -3 16 -2 19 1 4 3 -2 6 -13 5 -11 0 -14 -3 -6 -6z"/>
<path d="M483 11613 c9 -2 23 -2 30 0 6 3 -1 5 -18 5 -16 0 -22 -2 -12 -5z"/>
<path d="M548 11603 c12 -2 32 -2 45 0 12 2 2 4 -23 4 -25 0 -35 -2 -22 -4z"/>
<path d="M11720 11597 c0 -20 46 -92 57 -90 5 1 25 -14 44 -34 l34 -36 -40 28
c-25 18 -13 4 29 -36 38 -35 82 -84 98 -108 15 -25 28 -41 28 -35 0 5 -7 20
-16 32 -9 13 -14 26 -11 29 15 14 42 -69 47 -147 l5 -85 20 29 c13 20 21 51
23 98 5 85 -14 141 -66 195 -44 44 -252 177 -252 160z m181 -143 c74 -56 110
-124 115 -213 l3 -66 -10 55 c-16 88 -50 152 -110 201 -29 24 -78 68 -108 97
l-56 54 56 -44 c31 -23 80 -62 110 -84z m4 -54 c21 -22 37 -41 34 -44 -2 -2
-24 16 -48 40 -24 24 -40 44 -35 44 6 0 27 -18 49 -40z"/>
<path d="M493 11503 c9 -2 25 -2 35 0 9 3 1 5 -18 5 -19 0 -27 -2 -17 -5z"/>
<path d="M573 11484 c39 -21 28 -28 -12 -8 -49 24 -99 13 -140 -32 -30 -33
-33 -40 -29 -85 11 -115 139 -155 213 -68 29 35 34 103 10 135 -20 26 -19 42
1 22 10 -9 20 -34 24 -55 l8 -38 1 34 c1 26 -7 42 -38 72 -21 22 -45 39 -52
39 -8 -1 -1 -8 14 -16z m-20 -25 c76 -39 76 -148 0 -184 -93 -45 -185 68 -122
149 34 43 80 56 122 35z"/>
<path d="M475 11439 c-31 -18 -45 -40 -45 -72 0 -62 54 -100 110 -77 36 15 50
37 50 78 0 57 -67 98 -115 71z m73 -41 c7 -7 12 -21 12 -33 0 -29 -19 -45 -52
-45 -36 0 -56 36 -39 69 13 23 59 29 79 9z"/>
<path d="M12228 11493 c7 -3 16 -2 19 1 4 3 -2 6 -13 5 -11 0 -14 -3 -6 -6z"/>
<path d="M12202 11380 c-44 -27 -72 -76 -71 -125 l2 -40 6 46 c12 88 68 135
148 126 49 -5 88 -34 109 -82 7 -16 13 -24 14 -16 0 26 -41 79 -74 95 -46 22
-94 20 -134 -4z"/>
<path d="M12225 11370 c-67 -27 -94 -119 -53 -180 67 -99 218 -53 218 66 0 25
-7 56 -17 71 -28 43 -99 64 -148 43z m95 -25 c37 -19 50 -43 50 -93 0 -70 -70
-115 -136 -87 -63 26 -83 98 -43 149 36 46 80 56 129 31z"/>
<path d="M12230 11327 c-52 -26 -51 -100 1 -140 78 -58 169 66 95 130 -30 26
-59 29 -96 10z m68 -33 c38 -26 23 -84 -22 -84 -23 0 -56 27 -56 47 0 14 35
53 48 53 4 0 18 -7 30 -16z"/>
<path d="M762 11330 c0 -14 2 -19 5 -12 2 6 2 18 0 25 -3 6 -5 1 -5 -13z"/>
<path d="M670 6435 c0 -3210 3 -4825 10 -4825 7 0 10 1615 10 4825 0 3210 -3
4825 -10 4825 -7 0 -10 -1615 -10 -4825z"/>
<path d="M598 11214 l-28 -15 0 -4778 0 -4779 26 -6 c15 -4 28 -5 30 -3 2 2 3
2162 2 4799 l-3 4796 -27 -14z"/>
<path d="M410 6410 c0 -2640 1 -4800 3 -4800 1 0 22 6 47 14 l45 13 3 4777 2
4776 -24 0 c-14 0 -36 4 -50 10 l-26 10 0 -4800z"/>
<path d="M12140 11201 c0 -19 68 -81 88 -81 10 0 2 9 -19 21 -19 12 -43 33
-52 47 -9 15 -17 21 -17 13z"/>
<path d="M12070 6384 c0 -3167 3 -4753 10 -4749 7 4 10 1600 10 4756 0 3159
-3 4749 -10 4749 -7 0 -10 -1592 -10 -4756z"/>
<path d="M12278 11123 l-28 -4 0 -4691 0 -4691 31 7 c17 3 40 6 50 6 19 0 19
111 19 4685 l0 4685 -27 -6 c-22 -4 -25 -3 -13 5 8 6 11 10 5 9 -5 0 -22 -3
-37 -5z"/>
<path d="M12130 6396 l0 -4715 30 17 30 17 -3 4695 -2 4695 -27 3 -28 3 0
-4715z"/>
<path d="M12251 1716 c2 -2 20 -6 39 -10 25 -4 31 -3 20 4 -14 9 -69 15 -59 6z"/>
<path d="M12193 1690 c-30 -18 -60 -57 -50 -66 2 -2 9 7 16 20 7 13 29 33 49
44 21 12 33 22 27 22 -5 0 -24 -9 -42 -20z"/>
<path d="M11990 1666 c0 -19 -10 -65 -21 -102 -20 -64 -28 -76 -121 -167 -87
-85 -128 -142 -128 -176 0 -5 24 6 53 26 50 34 77 55 48 38 -10 -6 -12 -4 -7
4 5 7 14 10 21 7 12 -4 73 31 116 66 26 22 79 100 79 117 -1 9 -7 1 -16 -18
-8 -19 -17 -32 -20 -28 -3 3 2 19 10 36 9 16 16 38 17 48 0 16 1 16 8 -1 12
-32 4 109 -9 148 -15 45 -30 46 -30 2z m15 -142 c-10 -57 -63 -120 -163 -195
-112 -84 -104 -67 15 33 101 84 133 135 142 226 6 67 6 67 9 17 2 -27 1 -64
-3 -81z m-59 -151 c-27 -24 -63 -51 -80 -60 -38 -19 -27 -8 42 41 29 21 57 47
63 58 6 11 14 17 17 13 4 -4 -15 -27 -42 -52z"/>
<path d="M12223 1685 c-75 -32 -95 -136 -37 -196 50 -52 126 -51 176 3 23 24
28 39 28 78 0 56 -26 95 -76 116 -41 17 -50 17 -91 -1z m80 -14 c42 -16 67
-51 67 -94 0 -49 -13 -73 -50 -92 -46 -24 -78 -19 -116 19 -56 56 -42 130 30
162 38 16 39 16 69 5z"/>
<path d="M12219 1631 c-50 -51 -31 -120 38 -137 33 -9 74 12 90 48 18 35 0 84
-38 103 -40 21 -57 19 -90 -14z m89 -23 c35 -35 -14 -102 -57 -79 -11 6 -23
20 -26 32 -13 41 52 78 83 47z"/>
<path d="M12359 1675 c16 -14 33 -35 36 -46 4 -12 18 -37 31 -56 23 -35 31
-84 18 -118 -13 -33 -61 -47 -138 -40 -45 4 -88 3 -116 -5 -93 -25 -147 -131
-116 -229 8 -25 17 -59 21 -76 l7 -30 13 31 c7 18 18 35 24 38 6 4 8 12 5 18
-5 8 -1 9 10 5 10 -4 15 -3 11 3 -12 19 45 10 107 -16 45 -19 71 -24 97 -20
20 4 44 6 53 7 17 0 38 45 38 80 0 25 -4 24 -34 -6 -32 -32 -43 -31 -126 5
-87 38 -128 39 -171 3 -28 -24 -32 -25 -27 -8 3 11 7 27 9 34 5 19 50 58 80
70 16 7 19 10 7 10 -9 1 -31 -11 -50 -26 -28 -24 -30 -24 -13 -4 34 40 74 51
167 44 68 -5 90 -2 117 11 37 20 55 15 19 -5 -12 -7 -59 -16 -103 -19 l-80 -7
68 -1 c79 -2 123 13 159 56 22 27 25 37 21 89 -5 65 -21 97 -64 121 -16 10
-29 22 -29 29 0 15 -59 83 -72 83 -5 0 4 -11 21 -25z m131 -200 c0 -31 -36
-82 -69 -100 -23 -11 -56 -15 -133 -13 -86 2 -108 -1 -131 -16 -30 -20 -56
-62 -68 -111 l-7 -30 -1 30 c-1 42 37 105 78 129 29 16 50 19 135 18 148 -3
186 26 173 131 l-5 42 14 -30 c7 -16 13 -39 14 -50z m10 -54 c0 -5 -9 -19 -20
-32 l-20 -24 17 32 c19 34 23 39 23 24z m-212 -231 c84 -36 91 -36 126 -9 14
11 26 16 26 10 0 -18 -44 -41 -80 -41 -19 0 -59 11 -88 25 -85 39 -132 31
-157 -28 -8 -18 -14 -26 -15 -19 0 21 28 70 47 81 30 17 68 12 141 -19z"/>
<path d="M786 1596 c-9 -20 -16 -60 -16 -98 0 -116 53 -189 200 -273 36 -21
77 -49 93 -63 22 -22 27 -23 27 -8 0 24 -28 76 -42 76 -6 0 -8 3 -4 7 8 8
-113 133 -129 133 -5 0 8 -16 30 -35 22 -19 35 -34 30 -35 -20 0 -114 105
-134 150 -14 31 -21 67 -21 113 0 37 -4 67 -9 67 -5 0 -16 -15 -25 -34z m58
-196 c14 -21 48 -58 77 -81 29 -24 75 -66 103 -92 42 -39 33 -34 -52 29 -56
42 -114 90 -127 108 -35 46 -55 110 -54 170 l1 51 13 -73 c8 -43 24 -89 39
-112z m172 -132 l29 -33 -32 29 c-31 28 -38 36 -30 36 2 0 16 -15 33 -32z"/>
<path d="M454 1596 c-34 -15 -72 -58 -80 -91 -3 -12 -15 -28 -27 -34 -39 -22
-58 -58 -60 -115 -1 -31 2 -52 7 -48 5 3 6 -2 3 -12 -5 -13 2 -27 24 -47 17
-16 36 -29 42 -29 6 0 2 7 -9 16 -19 15 -19 16 1 9 53 -19 93 -23 138 -14 75
14 122 11 144 -8 10 -10 14 -15 9 -10 -27 20 -23 4 4 -19 26 -23 60 -72 60
-88 0 -3 -16 6 -36 19 -49 33 -80 31 -158 -10 -81 -43 -117 -45 -145 -9 l-21
27 0 -36 c0 -25 8 -45 26 -64 14 -15 23 -23 21 -18 -3 6 12 9 39 7 33 -3 60 4
110 27 68 32 99 38 108 22 4 -5 -3 -7 -15 -4 -19 5 -144 -45 -135 -54 2 -2 28
8 58 23 67 32 100 28 128 -18 21 -35 21 -36 41 55 21 98 -8 174 -85 218 -35
20 -46 21 -146 14 -104 -6 -108 -6 -136 18 -31 27 -36 70 -14 122 l13 30 7
-30 c3 -16 12 -40 18 -52 14 -25 59 -63 76 -63 6 0 -3 9 -21 20 -125 76 -50
272 94 245 47 -9 100 -63 106 -108 l4 -32 1 32 c3 56 -74 124 -140 123 -13 -1
-37 -7 -54 -14z m-135 -198 c-11 -39 -4 -65 24 -96 32 -34 79 -43 163 -30 98
15 153 -4 189 -66 14 -24 25 -49 25 -57 -1 -8 -7 0 -14 16 -20 44 -64 84 -102
91 -19 3 -66 2 -104 -4 -81 -12 -131 -2 -166 33 -28 28 -39 81 -25 118 14 37
22 34 10 -5z m6 -128 c10 -11 13 -20 7 -20 -6 0 -16 9 -22 20 -6 11 -9 20 -7
20 2 0 12 -9 22 -20z m353 -182 c12 -12 22 -26 22 -32 0 -5 -9 0 -20 12 -35
37 -62 37 -150 -3 -93 -42 -130 -41 -158 5 l-16 25 25 -22 c35 -31 65 -29 151
12 79 39 106 39 146 3z"/>
<path d="M12131 1575 c-3 -105 108 -175 206 -128 36 16 73 65 73 93 -1 8 -7 2
-14 -15 -21 -48 -60 -77 -109 -82 -80 -9 -136 38 -148 126 l-6 46 -2 -40z"/>
<path d="M465 1576 c-45 -20 -67 -50 -72 -100 -6 -53 11 -86 60 -116 38 -24
72 -25 111 -5 16 9 31 13 33 11 3 -2 -8 -11 -24 -20 -15 -8 -22 -15 -14 -16
23 0 91 75 90 101 -1 20 -2 19 -10 -7 -5 -17 -16 -37 -24 -44 -19 -16 -19 -1
0 24 38 50 9 138 -55 171 -35 18 -56 18 -95 1z m118 -46 c64 -71 5 -183 -88
-166 -73 14 -108 104 -64 160 43 54 105 57 152 6z"/>
<path d="M475 1539 c-41 -24 -56 -68 -39 -114 8 -19 55 -45 84 -45 56 0 91 92
53 139 -22 25 -71 35 -98 20z m73 -41 c7 -7 12 -21 12 -33 0 -29 -19 -45 -52
-45 -36 0 -56 36 -39 69 13 23 59 29 79 9z"/>
<path d="M840 1474 c0 -16 60 -107 67 -100 4 3 -3 16 -14 29 -11 12 -28 36
-36 52 -9 17 -16 25 -17 19z"/>
<path d="M11514 1347 c-17 -7 -42 -19 -55 -29 -23 -16 -22 -16 48 -13 68 3 74
1 93 -22 49 -62 4 -163 -72 -163 -28 0 -80 19 -54 20 5 0 -1 11 -14 25 -17 18
-23 37 -24 75 -1 56 -7 62 -25 24 -22 -48 -25 -108 -7 -142 31 -60 125 -87
198 -57 14 6 13 1 -4 -35 -32 -63 -35 -162 -8 -232 86 -229 398 -252 514 -37
78 143 18 331 -129 404 -60 30 -196 28 -248 -2 -21 -13 -39 -23 -41 -23 -1 0
0 27 2 59 4 49 0 66 -18 96 -37 59 -90 77 -156 52z m81 -21 c40 -17 65 -60 65
-112 0 -109 -134 -171 -216 -101 -20 17 -27 34 -30 72 -4 55 1 51 11 -8 14
-87 144 -103 199 -25 31 43 12 146 -29 162 -9 3 -35 6 -58 7 -36 1 -38 2 -17
9 36 12 37 11 75 -4z m-135 -171 c7 -9 8 -15 2 -15 -5 0 -12 7 -16 15 -3 8 -4
15 -2 15 2 0 9 -7 16 -15z m497 -18 c94 -49 147 -134 146 -237 0 -148 -104
-253 -249 -253 -113 1 -205 73 -239 186 -19 63 -19 81 1 146 19 65 73 126 139
158 41 20 61 23 110 20 34 -2 75 -12 92 -20z"/>
<path d="M11777 1126 c-162 -58 -207 -267 -82 -391 148 -149 389 -47 389 165
0 165 -156 279 -307 226z m159 -25 c22 -10 56 -37 76 -61 74 -85 72 -198 -3
-284 -131 -148 -362 -53 -364 150 0 83 38 147 114 186 63 33 118 36 177 9z"/>
<path d="M11833 1103 c9 -2 25 -2 35 0 9 3 1 5 -18 5 -19 0 -27 -2 -17 -5z"/>
<path d="M11754 1081 c-43 -26 -83 -81 -89 -122 l-5 -34 11 35 c16 52 53 95
101 119 24 11 36 21 28 21 -8 0 -29 -9 -46 -19z"/>
<path d="M11925 1082 c48 -23 102 -82 111 -120 9 -43 12 -49 13 -23 1 32 -42
105 -77 130 -16 11 -41 23 -58 26 -24 5 -22 3 11 -13z"/>
<path d="M11773 1020 c-62 -37 -83 -132 -43 -197 66 -109 243 -68 257 59 14
119 -112 201 -214 138z m133 -29 c89 -54 47 -201 -56 -201 -14 0 -39 9 -56 19
-67 41 -70 135 -5 178 41 28 76 29 117 4z"/>
<path d="M11789 961 c-20 -20 -29 -39 -29 -61 0 -22 9 -41 29 -61 37 -36 79
-38 118 -5 22 19 28 32 28 66 0 82 -88 119 -146 61z m106 -16 c14 -13 25 -33
25 -45 0 -26 -43 -70 -68 -70 -31 0 -72 38 -72 68 0 33 36 72 67 72 13 0 35
-11 48 -25z"/>
<path d="M11810 940 c-11 -11 -20 -29 -20 -40 0 -24 34 -60 55 -60 17 0 65 43
65 58 0 19 -42 62 -61 62 -10 0 -28 -9 -39 -20z m75 -14 c31 -46 -25 -97 -66
-60 -23 21 -24 42 -2 66 22 25 50 23 68 -6z"/>
<path d="M11651 904 c0 -11 3 -14 6 -6 3 7 2 16 -1 19 -3 4 -6 -2 -5 -13z"/>
<path d="M11661 867 c-4 -67 99 -169 167 -166 9 0 -4 7 -30 15 -55 17 -111 76
-126 132 -6 21 -10 29 -11 19z"/>
<path d="M12041 855 c-3 -53 -72 -125 -139 -145 -21 -6 -22 -8 -7 -9 57 -2
164 108 152 156 -4 16 -5 16 -6 -2z"/>
<path d="M493 1323 c9 -2 25 -2 35 0 9 3 1 5 -18 5 -19 0 -27 -2 -17 -5z"/>
<path d="M11584 1280 c38 -58 9 -127 -60 -140 l-39 -8 33 -1 c74 -2 120 95 71
150 l-21 24 16 -25z"/>
<path d="M1161 1265 c-47 -40 -64 -125 -37 -187 6 -14 1 -13 -35 5 -98 48
-221 29 -307 -48 -67 -60 -96 -128 -96 -220 0 -85 25 -146 81 -202 61 -61 104
-78 203 -78 75 0 91 3 132 27 61 37 113 99 134 161 22 67 15 181 -14 232 -12
20 -22 37 -22 38 0 1 31 2 69 2 66 0 72 2 105 34 32 31 36 41 36 85 0 70 -32
124 -90 154 -61 30 -120 29 -159 -3z m109 -2 c-59 -9 -72 -15 -90 -46 -65
-106 48 -220 160 -162 30 15 37 30 43 95 3 26 4 22 5 -16 1 -28 -4 -57 -10
-66 -60 -73 -181 -59 -222 26 -20 42 -20 67 -2 110 19 45 52 66 101 65 25 -1
31 -3 15 -6z m94 -39 c10 -25 7 -102 -4 -109 -6 -4 -8 -10 -5 -15 10 -15 -38
-40 -78 -40 -77 0 -119 78 -82 150 15 29 18 30 89 30 58 0 75 -3 80 -16z
m-285 -174 c43 -22 92 -72 117 -120 13 -25 19 -56 19 -110 0 -83 -15 -121 -69
-178 -119 -128 -322 -97 -400 60 -49 97 -32 209 44 290 77 85 193 108 289 58z"/>
<path d="M1209 1213 c-13 -16 -12 -17 4 -4 9 7 17 15 17 17 0 8 -8 3 -21 -13z"/>
<path d="M1191 1162 c-2 -69 92 -119 145 -76 18 15 18 15 -3 5 -60 -30 -121 0
-133 65 l-8 39 -1 -33z"/>
<path d="M896 1045 c-98 -37 -156 -123 -156 -229 0 -77 25 -131 79 -178 94
-80 223 -75 310 13 43 43 62 82 68 143 7 64 -9 121 -46 173 -53 74 -171 110
-255 78z m184 -43 c57 -35 100 -113 100 -182 0 -102 -87 -203 -187 -217 -124
-16 -232 84 -233 216 0 171 176 272 320 183z"/>
<path d="M885 1006 c-40 -17 -90 -75 -105 -121 -18 -56 -8 -137 23 -184 25
-38 89 -81 119 -81 7 0 -5 9 -27 19 -77 36 -115 95 -115 179 1 90 57 167 140
190 19 6 26 10 15 11 -11 0 -34 -6 -50 -13z"/>
<path d="M1020 1008 c77 -22 124 -79 139 -169 5 -35 9 -43 10 -24 3 98 -86
208 -166 204 -10 0 -2 -5 17 -11z"/>
<path d="M903 940 c-87 -52 -95 -161 -17 -230 30 -25 43 -30 89 -30 46 0 59 4
90 31 82 72 62 201 -38 238 -43 16 -88 13 -124 -9z m117 -25 c40 -21 60 -53
60 -98 0 -31 -7 -46 -34 -73 -70 -70 -176 -24 -176 76 0 42 15 67 53 90 38 24
59 25 97 5z"/>
<path d="M934 899 c-51 -26 -61 -102 -19 -144 55 -56 145 -16 145 63 0 63 -71
109 -126 81z m80 -30 c32 -25 35 -70 6 -99 -41 -41 -110 -13 -110 43 0 37 7
49 35 65 28 16 39 15 69 -9z"/>
<path d="M932 858 c-31 -31 0 -98 45 -98 42 0 71 68 41 98 -19 19 -33 14 -15
-6 20 -22 22 -53 5 -70 -15 -15 -51 -15 -66 0 -18 18 -15 65 6 77 9 6 12 11 7
11 -6 0 -16 -5 -23 -12z"/>
<path d="M1151 772 c-2 -33 -37 -87 -74 -113 -22 -16 -36 -29 -31 -29 36 0
123 113 110 143 -3 8 -5 8 -5 -1z"/>
<path d="M970 620 c-34 -7 -34 -7 -5 -8 17 0 39 3 50 8 24 10 4 10 -45 0z"/>
<path d="M548 1223 c12 -2 32 -2 45 0 12 2 2 4 -23 4 -25 0 -35 -2 -22 -4z"/>
<path d="M388 1213 c7 -3 16 -2 19 1 4 3 -2 6 -13 5 -11 0 -14 -3 -6 -6z"/>
<path d="M483 1213 c9 -2 23 -2 30 0 6 3 -1 5 -18 5 -16 0 -22 -2 -12 -5z"/>
<path d="M438 1203 c7 -3 16 -2 19 1 4 3 -2 6 -13 5 -11 0 -14 -3 -6 -6z"/>
<path d="M12229 1150 c24 -11 46 -20 50 -20 12 1 -64 39 -79 39 -8 0 5 -8 29
-19z"/>
<path d="M12400 1130 c-9 -6 -10 -10 -3 -10 6 0 15 5 18 10 8 12 4 12 -15 0z"/>
<path d="M12333 1113 c9 -2 25 -2 35 0 9 3 1 5 -18 5 -19 0 -27 -2 -17 -5z"/>
<path d="M11450 997 c-25 -12 -72 -44 -105 -71 -33 -27 -82 -59 -110 -72 -27
-13 -44 -24 -37 -24 7 0 27 7 43 16 17 8 33 13 36 10 12 -12 -70 -37 -101 -31
-24 5 -28 4 -16 -5 11 -9 0 -10 -48 -5 -35 3 -70 9 -78 12 -8 3 -14 1 -14 -4
0 -6 23 -22 51 -38 41 -22 64 -27 115 -27 89 0 158 34 227 115 28 34 71 81 93
104 41 42 41 43 15 43 -14 0 -46 -11 -71 -23z m-37 -82 c-112 -108 -155 -130
-248 -130 -38 1 -78 5 -87 11 -12 6 6 8 57 6 94 -5 155 21 246 105 57 53 107
93 117 93 1 0 -37 -38 -85 -85z m-18 29 c-64 -56 -105 -87 -110 -83 -4 5 136
119 145 118 3 0 -13 -16 -35 -35z"/>
<path d="M418 1003 c7 -3 16 -2 19 1 4 3 -2 6 -13 5 -11 0 -14 -3 -6 -6z"/>
<path d="M468 1003 c7 -3 16 -2 19 1 4 3 -2 6 -13 5 -11 0 -14 -3 -6 -6z"/>
<path d="M1281 937 c15 -12 51 -52 81 -89 75 -91 149 -149 190 -147 7 0 2 5
-11 10 -38 15 -93 51 -87 56 3 3 17 -4 33 -15 46 -32 100 -44 177 -40 51 2 81
9 102 23 l29 20 -86 6 c-101 7 -167 34 -249 103 -64 54 -143 96 -179 96 l-26
-1 26 -22z m149 -87 c105 -90 128 -102 225 -109 l80 -7 -52 -8 c-61 -9 -140
10 -190 47 -46 34 -189 171 -165 158 12 -6 57 -43 102 -81z m-29 -22 c29 -35
41 -52 25 -38 -30 27 -91 100 -83 100 3 0 29 -28 58 -62z"/>
<path d="M1593 693 c15 -2 37 -2 50 0 12 2 0 4 -28 4 -27 0 -38 -2 -22 -4z"/>
<path d="M11530 688 c0 -6 -11 -8 -28 -5 -19 4 -38 -1 -57 -13 -34 -22 -75
-86 -75 -115 1 -11 7 -2 15 20 14 40 74 105 96 105 7 0 -3 -10 -22 -23 -45
-29 -65 -75 -79 -172 -6 -44 -15 -84 -22 -90 -8 -7 -9 -5 -3 10 4 11 9 45 11
75 l3 55 -8 -57 c-5 -32 -17 -70 -27 -85 -10 -15 -17 -32 -16 -36 1 -5 -7 -5
-19 -2 -14 5 -19 3 -15 -4 10 -16 -55 10 -90 36 l-29 22 38 1 c86 0 147 58
147 138 0 85 -56 142 -139 142 -134 0 -191 -165 -85 -249 14 -11 35 -39 47
-63 42 -83 129 -112 197 -65 49 33 70 75 85 178 15 99 29 123 82 145 30 13
112 20 102 9 -5 -4 -38 -12 -61 -14 -16 -2 -38 -63 -37 -103 l2 -43 7 50 c8
58 18 85 32 85 5 0 2 -10 -6 -22 -20 -28 -20 -77 -1 -148 15 -56 11 -105 -8
-93 -5 3 -7 1 -3 -5 4 -6 -8 -16 -29 -23 -39 -14 -30 -29 18 -29 39 0 64 15
83 52 16 31 16 63 -2 183 -6 45 8 65 61 82 l29 9 -59 31 c-65 32 -135 49 -135
31z m45 -18 c-3 -5 -16 -10 -29 -10 -31 0 -88 -40 -104 -73 -7 -15 -17 -60
-21 -101 -11 -92 -37 -138 -90 -159 -46 -19 -97 -9 -127 24 l-19 21 35 -21
c19 -11 49 -21 66 -21 59 0 114 68 114 139 0 107 47 182 124 200 56 12 58 12
51 1z m-289 -41 c50 -46 39 -134 -20 -170 -38 -23 -58 -24 -101 -3 -108 51
-60 215 58 200 22 -2 50 -14 63 -27z m357 -14 c-37 -16 -48 -46 -39 -103 17
-108 18 -123 7 -151 -7 -15 -24 -33 -37 -40 -36 -16 -44 -13 -12 5 33 17 42
48 34 106 -20 143 -20 145 7 172 15 14 36 26 49 26 20 -1 19 -3 -9 -15z m-298
-244 c-3 -6 -11 -11 -17 -11 -6 0 -6 6 2 15 14 17 26 13 15 -4z"/>
<path d="M11153 616 c-22 -19 -28 -32 -28 -65 0 -56 30 -86 86 -86 81 0 117
88 60 146 -37 36 -79 38 -118 5z m104 -18 c31 -29 30 -71 -3 -97 -15 -12 -35
-21 -46 -21 -25 0 -68 44 -68 70 0 28 43 70 71 70 13 0 33 -10 46 -22z"/>
<path d="M11177 592 c-10 -10 -17 -22 -17 -26 0 -5 8 2 18 14 14 18 25 21 45
16 35 -8 46 -49 22 -76 -10 -11 -13 -20 -7 -20 13 0 32 32 32 54 0 22 -36 56
-58 56 -11 0 -26 -8 -35 -18z"/>
<path d="M11160 530 c0 -13 49 -44 57 -36 3 3 1 6 -5 6 -7 0 -21 9 -32 20 -11
11 -20 16 -20 10z"/>
<path d="M1562 630 c-66 -41 -89 -116 -56 -187 23 -47 57 -67 124 -73 l55 -5
-44 -32 c-56 -42 -93 -43 -131 -4 -16 16 -31 39 -34 52 -11 56 -34 145 -41
163 -6 14 -5 17 3 12 6 -4 18 -28 26 -54 8 -26 15 -38 15 -28 1 32 -39 104
-69 126 -33 23 -53 27 -24 5 18 -14 17 -15 -8 -4 -15 7 -25 15 -23 19 10 16
-127 1 -153 -17 -15 -10 -40 -24 -57 -31 -32 -15 -29 -18 27 -36 33 -10 47
-47 38 -96 -14 -72 -11 -123 9 -156 24 -40 79 -61 112 -44 21 12 20 13 -20 37
-46 27 -50 45 -30 146 10 50 9 61 -8 97 -25 48 -20 53 7 8 11 -18 20 -28 20
-22 0 17 -40 65 -50 59 -4 -3 -16 -2 -25 1 -35 14 12 26 54 14 76 -20 101 -55
116 -165 13 -93 63 -157 133 -171 66 -13 142 39 157 106 4 17 16 35 26 41 33
17 59 70 59 118 0 109 -116 177 -208 121z m113 -24 c72 -30 85 -129 24 -180
-35 -30 -76 -33 -119 -11 -30 16 -60 61 -60 90 0 33 32 84 63 99 40 19 49 20
92 2z m-318 -15 c51 -24 69 -56 89 -157 17 -91 26 -110 67 -134 40 -25 63 -25
110 0 46 25 49 17 5 -10 -47 -28 -99 -26 -137 6 -42 35 -49 49 -66 140 -22
115 -51 148 -142 164 l-48 8 40 1 c22 0 59 -8 82 -18z m68 -12 c11 -17 -1 -21
-15 -4 -8 9 -8 15 -2 15 6 0 14 -5 17 -11z m-189 -42 c30 -26 33 -51 19 -149
-10 -72 -2 -104 33 -122 18 -10 21 -15 10 -16 -24 0 -68 57 -68 89 0 15 5 53
11 85 15 70 3 101 -44 121 -26 12 -28 14 -10 15 12 0 34 -11 49 -23z"/>
<path d="M1591 586 c-55 -31 -65 -93 -22 -137 60 -59 151 -20 151 66 0 56 -79
100 -129 71z m84 -31 c14 -13 25 -34 25 -46 0 -32 -38 -69 -71 -69 -31 0 -69
40 -69 72 0 25 44 68 70 68 12 0 32 -11 45 -25z"/>
<path d="M1584 535 c-9 -14 -14 -28 -10 -32 3 -3 6 -1 6 5 0 7 9 21 20 32 11
11 16 20 10 20 -5 0 -17 -11 -26 -25z"/>
<path d="M1660 542 c18 -14 21 -25 16 -45 -8 -35 -49 -46 -76 -22 -11 10 -20
13 -20 7 0 -13 32 -32 54 -32 22 0 56 36 56 59 0 21 -25 51 -42 51 -6 0 0 -8
12 -18z"/>
<path d="M1760 630 c0 -7 1558 -10 4655 -10 3097 0 4655 3 4655 10 0 7 -1558
10 -4655 10 -3097 0 -4655 -3 -4655 -10z"/>
<path d="M1811 550 l11 -30 4609 0 c3972 0 4609 2 4609 14 0 8 3 21 6 30 6 15
-406 16 -4619 16 l-4626 0 10 -30z"/>
<path d="M1301 464 c0 -11 3 -14 6 -6 3 7 2 16 -1 19 -3 4 -6 -2 -5 -13z"/>
<path d="M11552 470 c0 -8 4 -26 8 -40 6 -20 8 -21 8 -5 0 11 -3 29 -8 40 -5
12 -8 14 -8 5z"/>
<path d="M1810 433 c-6 -16 -15 -36 -20 -45 -6 -10 -10 -20 -10 -23 0 -3 2102
-5 4671 -5 l4671 0 -25 30 c-14 16 -28 39 -32 50 -6 20 -11 20 -4626 20
l-4619 0 -10 -27z"/>
<path d="M1481 427 c-1 -40 24 -94 51 -108 21 -11 21 -10 -4 14 -16 14 -29 41
-33 63 -9 55 -13 63 -14 31z"/>
<path d="M1292 410 c0 -14 2 -19 5 -12 2 6 2 18 0 25 -3 6 -5 1 -5 -13z"/>
<path d="M1282 350 c0 -19 2 -27 5 -17 2 9 2 25 0 35 -3 9 -5 1 -5 -18z"/>
</g>
</svg>
