<?xml version="1.0" encoding="UTF-8" standalone="no"?>
<!DOCTYPE svg PUBLIC "-//W3C//DTD SVG 20010904//EN"
              "http://www.w3.org/TR/2001/REC-SVG-20010904/DTD/svg10.dtd">

<svg xmlns="http://www.w3.org/2000/svg"
     width="11.1111in" height="11.1111in"
     viewBox="0 0 800 800">
  <path id="Selection"
        fill="none" stroke="black" stroke-width="1"
        d="M 140.00,264.00
           C 145.97,262.30 154.62,263.00 161.00,263.00
             161.00,263.00 199.00,263.00 199.00,263.00
             199.00,263.00 284.00,263.00 284.00,263.00
             292.75,263.00 319.28,262.09 326.00,264.00
             326.00,264.00 319.73,288.00 319.73,288.00
             319.73,288.00 310.86,321.00 310.86,321.00
             309.73,324.99 307.75,335.94 304.61,337.98
             302.69,339.22 299.24,339.00 297.00,339.00
             297.00,339.00 213.00,339.00 213.00,339.00
             213.00,339.00 204.00,374.00 204.00,374.00
             204.00,374.00 313.00,374.00 313.00,374.00
             310.48,378.60 307.60,378.99 303.00,381.08
             303.00,381.08 282.00,390.46 282.00,390.46
             282.00,390.46 217.00,419.14 217.00,419.14
             211.49,421.59 192.73,428.84 189.51,432.39
             186.83,435.33 185.37,443.77 184.00,448.00
             184.00,448.00 216.00,449.00 216.00,449.00
             216.00,449.00 276.00,449.00 276.00,449.00
             275.47,454.86 273.32,460.32 271.89,466.00
             271.89,466.00 261.28,506.00 261.28,506.00
             260.35,509.58 258.22,521.04 255.49,522.98
             253.73,524.23 250.13,524.00 248.00,524.00
             248.00,524.00 140.00,524.00 140.00,524.00
             140.00,524.00 107.00,524.00 107.00,524.00
             100.90,524.00 93.83,524.66 88.00,523.00
             88.00,523.00 97.74,486.00 97.74,486.00
             97.74,486.00 132.28,357.00 132.28,357.00
             132.28,357.00 146.01,306.00 146.01,306.00
             146.01,306.00 151.32,283.00 151.32,283.00
             151.32,283.00 140.00,264.00 140.00,264.00 Z
           M 307.00,523.00
           C 313.10,516.62 326.60,506.76 334.00,500.99
             334.00,500.99 376.00,467.79 376.00,467.79
             380.48,464.26 395.92,451.24 400.00,449.73
             402.35,448.86 405.49,449.00 408.00,449.00
             408.00,449.00 442.00,448.15 442.00,448.15
             447.15,447.53 453.11,446.63 456.26,441.90
             462.26,432.89 448.20,432.01 443.00,432.00
             443.00,432.00 412.00,432.00 412.00,432.00
             412.00,432.00 397.00,431.00 397.00,431.00
             381.69,430.97 360.03,426.34 348.00,416.53
             331.11,402.77 330.77,387.82 331.00,368.00
             331.07,361.96 331.68,361.54 332.74,356.00
             336.57,335.94 344.35,317.29 356.75,301.00
             373.33,279.20 399.66,268.45 426.00,264.72
             433.40,263.67 432.53,263.01 441.00,263.00
             441.00,263.00 508.00,263.00 508.00,263.00
             508.00,263.00 546.00,263.00 546.00,263.00
             551.17,263.00 557.67,261.81 562.00,265.00
             562.00,265.00 531.00,289.55 531.00,289.55
             531.00,289.55 493.00,319.40 493.00,319.40
             488.64,322.88 471.80,336.71 468.00,338.11
             465.24,339.13 461.91,339.00 459.00,339.00
             459.00,339.00 429.00,339.00 429.00,339.00
             423.56,339.07 409.02,341.48 411.66,349.90
             413.49,355.76 425.02,355.99 430.00,356.00
             430.00,356.00 476.00,356.00 476.00,356.00
             488.77,356.02 508.60,361.35 519.00,368.78
             537.74,382.18 538.24,397.19 538.00,418.00
             537.92,424.25 536.00,432.85 534.47,439.00
             528.33,463.65 516.15,485.81 496.00,501.71
             478.49,515.54 450.23,523.97 428.00,524.00
             428.00,524.00 404.00,524.00 404.00,524.00
             404.00,524.00 361.00,524.00 361.00,524.00
             361.00,524.00 327.00,524.00 327.00,524.00
             320.77,524.00 312.89,524.67 307.00,523.00 Z
           M 734.00,449.00
           C 734.00,449.00 733.00,505.00 733.00,505.00
             733.00,508.48 733.92,520.99 731.40,522.98
             729.81,524.23 725.99,524.00 724.00,524.00
             724.00,524.00 671.00,524.00 671.00,524.00
             648.76,524.00 632.01,524.64 611.00,515.14
             601.50,510.84 593.38,505.37 586.00,498.00
             578.11,490.11 573.43,483.73 568.09,474.00
             545.49,432.80 560.82,379.85 585.08,343.00
             598.85,322.08 623.49,299.87 645.00,287.00
             661.82,276.94 679.79,269.48 699.00,265.51
             699.00,265.51 706.00,264.68 706.00,264.68
             712.72,263.56 711.11,263.01 719.00,263.00
             719.00,263.00 734.00,263.00 734.00,263.00
             734.00,263.00 734.00,339.00 734.00,339.00
             713.52,339.00 694.56,336.97 676.00,347.50
             667.86,352.13 657.38,360.78 651.46,368.00
             637.62,384.89 629.67,411.53 642.91,431.00
             645.38,434.63 649.43,438.67 653.00,441.21
             660.77,446.75 673.58,448.89 683.00,449.00
             683.00,449.00 734.00,449.00 734.00,449.00 Z" />
</svg>
