<!--?xml version="1.0" standalone="no"?-->
              <svg id="sw-js-blob-svg" viewBox="0 0 100 100" xmlns="http://www.w3.org/2000/svg" version="1.1">
                    <defs> 
                        <linearGradient id="sw-gradient" x1="0" x2="1" y1="1" y2="0">
                            <stop id="stop1" stop-color="rgba(28, 32, 38, 1)" offset="0%"></stop>
                            <stop id="stop2" stop-color="rgba(28, 32, 38, 1)" offset="100%"></stop>
                        </linearGradient>
                    </defs>
                <path fill="url(#sw-gradient)" d="M8.8,-16.5C11.9,-13.5,15.1,-12.1,20.7,-9.6C26.3,-7.1,34.2,-3.5,36.2,1.1C38.2,5.8,34.2,11.6,30.7,17.7C27.2,23.8,24.2,30.2,19.1,34.8C14.1,39.4,7,42.2,0.3,41.7C-6.4,41.1,-12.8,37.2,-19.4,33.5C-26.1,29.8,-33,26.4,-34.6,20.9C-36.2,15.3,-32.6,7.7,-30,1.5C-27.5,-4.7,-26,-9.5,-23.7,-13.8C-21.4,-18.2,-18.3,-22.3,-14.2,-24.6C-10.1,-27,-5.1,-27.7,-1.1,-25.8C2.9,-23.9,5.8,-19.5,8.8,-16.5Z" width="100%" height="100%" transform="translate(50 50)" stroke-width="0" style="transition: all 0.3s ease 0s;" stroke="url(#sw-gradient)"></path>
              </svg>